<svg width="571" height="502" viewBox="0 0 571 502" version="1.1" xmlns="http://www.w3.org/2000/svg" xmlns:xlink="http://www.w3.org/1999/xlink">
<g id="Canvas" fill="none">
<g id="calendar-circle">
<g id="Ellipse">
<circle cx="251" cy="251" r="251" transform="translate(68.444 0)" fill="#3AD29F"/>
</g>
<g id="calender">
<g id="Vector">
<path d="M 397.602 0L 0 0L 0 262.915L 397.602 262.915L 397.602 0Z" transform="translate(18.2543 119.543)" fill="url(#paint0_linear)"/>
</g>
<g id="Vector_2">
<path d="M 389.65 0L 0 0L 0 223.9L 389.65 223.9L 389.65 0Z" transform="translate(21.7333 150.605)" fill="white"/>
</g>
<g id="Vector_3">
<path d="M 389.65 0L 0 0L 0 25.5956L 389.65 25.5956L 389.65 0Z" transform="translate(21.7333 125.01)" fill="#FFC107"/>
</g>
<g id="Vector_4">
<path d="M 379.71 0L 0 0L 0 195.322L 379.71 195.322L 379.71 0Z" transform="translate(27.2003 166.758)" fill="url(#paint1_linear)"/>
</g>
<g id="Vector_5" opacity="0.5">
<path d="M 45.7243 0L 0 0L 0 36.5297L 45.7243 36.5297L 45.7243 0Z" transform="translate(31.9219 170.237)" fill="#FFC107"/>
</g>
<g id="Vector_6">
<path d="M 45.7243 0L 0 0L 0 36.5297L 45.7243 36.5297L 45.7243 0Z" transform="translate(78.1431 170.237)" fill="white"/>
</g>
<g id="Vector_7" opacity="0.2">
<path d="M 45.7243 0L 0 0L 0 36.5297L 45.7243 36.5297L 45.7243 0Z" transform="translate(124.364 170.237)" fill="#FFC107"/>
</g>
<g id="Vector_8">
<path d="M 45.7243 0L -7.28032e-06 0L -7.28032e-06 36.5297L 45.7243 36.5297L 45.7243 0Z" transform="translate(170.586 170.237)" fill="white"/>
</g>
<g id="Vector_9">
<path d="M 45.7243 0L -7.28032e-06 0L -7.28032e-06 36.5297L 45.7243 36.5297L 45.7243 0Z" transform="translate(216.807 170.237)" fill="white"/>
</g>
<g id="Vector_10" opacity="0.5">
<path d="M 45.7243 0L -7.28032e-06 0L -7.28032e-06 36.5297L 45.7243 36.5297L 45.7243 0Z" transform="translate(263.028 170.237)" fill="#FFC107"/>
</g>
<g id="Vector_11">
<path d="M 45.7243 0L -7.28032e-06 0L -7.28032e-06 36.5297L 45.7243 36.5297L 45.7243 0Z" transform="translate(309.249 170.237)" fill="white"/>
</g>
<g id="Vector_12" opacity="0.2">
<path d="M 45.7243 0L -7.28032e-06 0L -7.28032e-06 36.5297L 45.7243 36.5297L 45.7243 0Z" transform="translate(355.471 170.237)" fill="#FFC107"/>
</g>
<g id="Vector_13" opacity="0.2">
<path d="M 45.7243 0L 0 0L 0 36.5297L 45.7243 36.5297L 45.7243 0Z" transform="translate(31.9219 207.512)" fill="#FFC107"/>
</g>
<g id="Vector_14" opacity="0.2">
<path d="M 45.7243 0L 0 0L 0 36.5297L 45.7243 36.5297L 45.7243 0Z" transform="translate(78.1431 207.512)" fill="#FFC107"/>
</g>
<g id="Vector_15">
<path d="M 45.7243 0L 0 0L 0 36.5297L 45.7243 36.5297L 45.7243 0Z" transform="translate(124.364 207.512)" fill="white"/>
</g>
<g id="Vector_16" opacity="0.5">
<path d="M 45.7243 0L -7.28032e-06 0L -7.28032e-06 36.5297L 45.7243 36.5297L 45.7243 0Z" transform="translate(170.586 207.512)" fill="#FFC107"/>
</g>
<g id="Vector_17">
<path d="M 45.7243 0L -7.28032e-06 0L -7.28032e-06 36.5297L 45.7243 36.5297L 45.7243 0Z" transform="translate(216.807 207.512)" fill="white"/>
</g>
<g id="Vector_18" opacity="0.2">
<path d="M 45.7243 0L -7.28032e-06 0L -7.28032e-06 36.5297L 45.7243 36.5297L 45.7243 0Z" transform="translate(263.028 207.512)" fill="#FFC107"/>
</g>
<g id="Vector_19" opacity="0.5">
<path d="M 45.7243 0L -7.28032e-06 0L -7.28032e-06 36.5297L 45.7243 36.5297L 45.7243 0Z" transform="translate(309.249 207.512)" fill="#FFC107"/>
</g>
<g id="Vector_20">
<path d="M 45.7243 0L -7.28032e-06 0L -7.28032e-06 36.5297L 45.7243 36.5297L 45.7243 0Z" transform="translate(355.471 207.512)" fill="white"/>
</g>
<g id="Vector_21">
<path d="M 45.7243 0L 0 0L 0 36.5297L 45.7243 36.5297L 45.7243 0Z" transform="translate(31.9219 244.29)" fill="white"/>
</g>
<g id="Vector_22">
<path d="M 45.7243 0L 0 0L 0 36.5297L 45.7243 36.5297L 45.7243 0Z" transform="translate(78.1431 244.29)" fill="white"/>
</g>
<g id="Vector_23" opacity="0.2">
<path d="M 45.7243 0L 0 0L 0 36.5297L 45.7243 36.5297L 45.7243 0Z" transform="translate(124.364 244.29)" fill="#FFC107"/>
</g>
<g id="Vector_24">
<path d="M 45.7243 0L -7.28032e-06 0L -7.28032e-06 36.5297L 45.7243 36.5297L 45.7243 0Z" transform="translate(170.586 244.29)" fill="white"/>
</g>
<g id="Vector_25" opacity="0.2">
<path d="M 45.7243 0L -7.28032e-06 0L -7.28032e-06 36.5297L 45.7243 36.5297L 45.7243 0Z" transform="translate(216.807 244.29)" fill="#FFC107"/>
</g>
<g id="Vector_26">
<path d="M 45.7243 0L -7.28032e-06 0L -7.28032e-06 36.5297L 45.7243 36.5297L 45.7243 0Z" transform="translate(263.028 244.29)" fill="white"/>
</g>
<g id="Vector_27">
<path d="M 45.7243 0L -7.28032e-06 0L -7.28032e-06 36.5297L 45.7243 36.5297L 45.7243 0Z" transform="translate(309.249 244.29)" fill="white"/>
</g>
<g id="Vector_28" opacity="0.2">
<path d="M 45.7243 0L -7.28032e-06 0L -7.28032e-06 36.5297L 45.7243 36.5297L 45.7243 0Z" transform="translate(355.471 244.29)" fill="#FFC107"/>
</g>
<g id="Vector_29">
<path d="M 45.7243 0L 0 0L 0 36.5297L 45.7243 36.5297L 45.7243 0Z" transform="translate(31.9219 281.069)" fill="white"/>
</g>
<g id="Vector_30" opacity="0.5">
<path d="M 45.7243 0L 0 0L 0 36.5297L 45.7243 36.5297L 45.7243 0Z" transform="translate(78.1431 281.069)" fill="#FFC107"/>
</g>
<g id="Vector_31" opacity="0.5">
<path d="M 45.7243 0L 0 0L 0 36.5297L 45.7243 36.5297L 45.7243 0Z" transform="translate(124.364 281.069)" fill="#FFC107"/>
</g>
<g id="Vector_32">
<path d="M 45.7243 0L -7.28032e-06 0L -7.28032e-06 36.5297L 45.7243 36.5297L 45.7243 0Z" transform="translate(170.586 281.069)" fill="white"/>
</g>
<g id="Vector_33">
<path d="M 45.7243 0L -7.28032e-06 0L -7.28032e-06 36.5297L 45.7243 36.5297L 45.7243 0Z" transform="translate(216.807 281.069)" fill="white"/>
</g>
<g id="Vector_34" opacity="0.5">
<path d="M 45.7243 0L -7.28032e-06 0L -7.28032e-06 36.5297L 45.7243 36.5297L 45.7243 0Z" transform="translate(263.028 281.069)" fill="#FFC107"/>
</g>
<g id="Vector_35">
<path d="M 45.7243 0L -7.28032e-06 0L -7.28032e-06 36.5297L 45.7243 36.5297L 45.7243 0Z" transform="translate(309.249 281.069)" fill="white"/>
</g>
<g id="Vector_36" opacity="0.5">
<path d="M 45.7243 0L -7.28032e-06 0L -7.28032e-06 36.5297L 45.7243 36.5297L 45.7243 0Z" transform="translate(355.471 281.069)" fill="#FFC107"/>
</g>
<g id="Vector_37" opacity="0.5">
<path d="M 45.7243 0L 0 0L 0 36.5297L 45.7243 36.5297L 45.7243 0Z" transform="translate(31.9219 318.344)" fill="#FFC107"/>
</g>
<g id="Vector_38" opacity="0.2">
<path d="M 45.7243 0L 0 0L 0 36.5297L 45.7243 36.5297L 45.7243 0Z" transform="translate(78.1431 318.344)" fill="#FFC107"/>
</g>
<g id="Vector_39">
<path d="M 45.7243 0L 0 0L 0 36.5297L 45.7243 36.5297L 45.7243 0Z" transform="translate(124.364 318.344)" fill="white"/>
</g>
<g id="Vector_40" opacity="0.5">
<path d="M 45.7243 0L -7.28032e-06 0L -7.28032e-06 36.5297L 45.7243 36.5297L 45.7243 0Z" transform="translate(170.586 318.344)" fill="#FFC107"/>
</g>
<g id="Vector_41" opacity="0.2">
<path d="M 45.7243 0L -7.28032e-06 0L -7.28032e-06 36.5297L 45.7243 36.5297L 45.7243 0Z" transform="translate(216.807 318.344)" fill="#FFC107"/>
</g>
<g id="Vector_42">
<path d="M 45.7243 0L -7.28032e-06 0L -7.28032e-06 36.5297L 45.7243 36.5297L 45.7243 0Z" transform="translate(263.028 318.344)" fill="white"/>
</g>
<g id="Vector_43" opacity="0.2">
<path d="M 45.7243 0L -7.28032e-06 0L -7.28032e-06 36.5297L 45.7243 36.5297L 45.7243 0Z" transform="translate(309.249 318.344)" fill="#FFC107"/>
</g>
<g id="Vector_44">
<path d="M 45.7243 0L -7.28032e-06 0L -7.28032e-06 36.5297L 45.7243 36.5297L 45.7243 0Z" transform="translate(355.471 318.344)" fill="white"/>
</g>
<g id="Vector_45">
<path d="M 13.9161 0L 0 0L 0 13.9161L 13.9161 13.9161L 13.9161 0Z" transform="translate(35.6494 247.769)" fill="#69F0AE"/>
</g>
<g id="Vector_46">
<path d="M 13.9161 0L -7.28032e-06 0L -7.28032e-06 13.9161L 13.9161 13.9161L 13.9161 0Z" transform="translate(173.816 174.213)" fill="#69F0AE"/>
</g>
<g id="Vector_47">
<path d="M 13.9161 0L -7.28032e-06 0L -7.28032e-06 13.9161L 13.9161 13.9161L 13.9161 0Z" transform="translate(172.325 247.769)" fill="#69F0AE"/>
</g>
<g id="Vector_48">
<path d="M 13.9161 0L -7.28032e-06 0L -7.28032e-06 13.9161L 13.9161 13.9161L 13.9161 0Z" transform="translate(219.54 283.057)" fill="#69F0AE"/>
</g>
<g id="Vector_49">
<path d="M 13.9161 0L -7.28032e-06 0L -7.28032e-06 13.9161L 13.9161 13.9161L 13.9161 0Z" transform="translate(311.486 247.769)" fill="#69F0AE"/>
</g>
<g id="Vector_50">
<path d="M 85.2608 170.522C 132.349 170.522 170.522 132.349 170.522 85.2608C 170.522 38.1726 132.349 6.06693e-06 85.2608 6.06693e-06C 38.1726 6.06693e-06 0 38.1726 0 85.2608C 0 132.349 38.1726 170.522 85.2608 170.522Z" transform="translate(0.55603 277.068)" fill="url(#paint2_linear)"/>
</g>
<g id="Vector_51">
<path d="M 82.9597 165.919C 128.777 165.919 165.919 128.777 165.919 82.9597C 165.919 37.1423 128.777 -6.67362e-06 82.9597 -6.67362e-06C 37.1423 -6.67362e-06 0 37.1423 0 82.9597C 0 128.777 37.1423 165.919 82.9597 165.919Z" transform="translate(2.85715 279.369)" fill="#FFC107"/>
</g>
<g id="Vector_52">
<path d="M 67.4035 134.807C 104.629 134.807 134.807 104.629 134.807 67.4035C 134.807 30.1776 104.629 2.42677e-06 67.4035 2.42677e-06C 30.1776 2.42677e-06 0 30.1776 0 67.4035C 0 104.629 30.1776 134.807 67.4035 134.807Z" transform="translate(18.4133 294.925)" fill="white"/>
</g>
<g id="Vector_53">
<path d="M 4.03069 8.06138C 6.25678 8.06138 8.06139 6.25678 8.06139 4.03069C 8.06139 1.8046 6.25678 7.28031e-06 4.03069 7.28031e-06C 1.8046 7.28031e-06 0 1.8046 0 4.03069C 0 6.25678 1.8046 8.06138 4.03069 8.06138Z" transform="translate(81.7862 358.298)" fill="url(#paint3_linear)"/>
</g>
<g id="Vector_54">
</g>
<g id="Vector_55">
<path d="M 2.48501 53.1793L 3.03346e-07 52.3443L 22.3651 0L 24.8501 1.16796L 2.48501 53.1793Z" transform="translate(84.8527 309.646)" fill="url(#paint4_linear)"/>
</g>
<g id="Vector_56">
<path d="M 56.2806 3.64016e-06L 0 3.64016e-06L 0 1.72956L 56.2806 1.72956L 56.2806 3.64016e-06Z" transform="matrix(0.388963 -0.921253 0.921253 0.388963 85.5923 361.976)" fill="#2196F3"/>
</g>
<g id="Vector_57">
</g>
<g id="Vector_58">
<path d="M 14.4131 27.8322L 3.03346e-07 0.994006L 1.98801 0L 16.8981 26.3412L 14.4131 27.8322Z" transform="translate(85.3497 362.329)" fill="url(#paint5_linear)"/>
</g>
<g id="Vector_59">
<path d="M 1.72958 6.06693e-06L 0 6.06693e-06L 0 30.1631L 1.72958 30.1631L 1.72958 6.06693e-06Z" transform="matrix(0.87865 -0.477466 0.477466 0.87865 85.6255 363.334)" fill="#2196F3"/>
</g>
<g id="Vector_60">
<path d="M 1.72957 3.45914C 2.68478 3.45914 3.45914 2.68479 3.45914 1.72958C 3.45914 0.77436 2.68478 0 1.72957 0C 0.774352 0 6.67362e-06 0.77436 6.67362e-06 1.72958C 6.67362e-06 2.68479 0.774352 3.45914 1.72957 3.45914Z" transform="translate(146.884 362.329)" fill="#FFC107"/>
</g>
<g id="Vector_61">
<path d="M 2.24645 4.49291C 3.48714 4.49291 4.4929 3.48713 4.4929 2.24645C 4.4929 1.00577 3.48714 -1.45606e-05 2.24645 -1.45606e-05C 1.00577 -1.45606e-05 0 1.00577 0 2.24645C 0 3.48713 1.00577 4.49291 2.24645 4.49291Z" transform="matrix(0.5 -0.866025 0.866025 0.5 28.6574 332.097)" fill="url(#paint6_linear)"/>
</g>
<g id="Vector_62">
<path d="M 2.24646 4.4929C 3.48714 4.4929 4.4929 3.48712 4.4929 2.24644C 4.4929 1.00576 3.48714 7.28032e-06 2.24646 7.28032e-06C 1.00577 7.28032e-06 0 1.00576 0 2.24644C 0 3.48712 1.00577 4.4929 2.24646 4.4929Z" transform="matrix(0.866025 -0.5 0.5 0.866025 29.2323 394.397)" fill="url(#paint7_linear)"/>
</g>
<g id="Vector_63">
<path d="M 2.24645 4.49291C 3.48713 4.49291 4.49291 3.48714 4.49291 2.24646C 4.49291 1.00578 3.48713 -4.24685e-06 2.24645 -4.24685e-06C 1.00577 -4.24685e-06 0 1.00578 0 2.24646C 0 3.48714 1.00577 4.49291 2.24645 4.49291Z" transform="translate(20.7791 361.812)" fill="url(#paint8_linear)"/>
</g>
<g id="Vector_64">
<path d="M 2.24646 4.4929C 3.48714 4.4929 4.4929 3.48714 4.4929 2.24646C 4.4929 1.00577 3.48714 -7.28032e-06 2.24646 -7.28032e-06C 1.00578 -7.28032e-06 -5.46024e-06 1.00577 -5.46024e-06 2.24646C -5.46024e-06 3.48714 1.00578 4.4929 2.24646 4.4929Z" transform="matrix(0.866025 -0.5 0.5 0.866025 51.5826 307.409)" fill="url(#paint9_linear)"/>
</g>
<g id="Vector_65">
<path d="M 2.24646 4.4929C 3.48714 4.4929 4.4929 3.48714 4.4929 2.24645C 4.4929 1.00577 3.48714 7.28032e-06 2.24646 7.28032e-06C 1.00577 7.28032e-06 -7.28032e-06 1.00577 -7.28032e-06 2.24645C -7.28032e-06 3.48714 1.00577 4.4929 2.24646 4.4929Z" transform="matrix(0.866025 -0.5 0.5 0.866025 82.6923 299.346)" fill="url(#paint10_linear)"/>
</g>
<g id="Vector_66">
<path d="M 2.24646 4.4929C 3.48714 4.4929 4.49291 3.48714 4.49291 2.24646C 4.49291 1.00577 3.48714 -7.28032e-06 2.24646 -7.28032e-06C 1.00578 -7.28032e-06 -4.24685e-06 1.00577 -4.24685e-06 2.24646C -4.24685e-06 3.48714 1.00578 4.4929 2.24646 4.4929Z" transform="matrix(0.866025 -0.5 0.5 0.866025 113.801 307.411)" fill="url(#paint11_linear)"/>
</g>
<g id="Vector_67">
<path d="M 2.24645 4.49292C 3.48713 4.49292 4.4929 3.48713 4.4929 2.24645C 4.4929 1.00577 3.48713 -9.70709e-06 2.24645 -9.70709e-06C 1.00577 -9.70709e-06 3.64016e-06 1.00577 3.64016e-06 2.24645C 3.64016e-06 3.48713 1.00577 4.49292 2.24645 4.49292Z" transform="matrix(0.866025 -0.5 0.5 0.866025 136.844 330.456)" fill="url(#paint12_linear)"/>
</g>
<g id="Vector_68">
<path d="M 2.24645 4.4929C 3.48713 4.4929 4.49291 3.48712 4.49291 2.24644C 4.49291 1.00576 3.48713 7.28032e-06 2.24645 7.28032e-06C 1.00577 7.28032e-06 0 1.00576 0 2.24644C 0 3.48712 1.00577 4.4929 2.24645 4.4929Z" transform="matrix(0.866025 -0.5 0.5 0.866025 136.27 394.402)" fill="url(#paint13_linear)"/>
</g>
<g id="Vector_69">
<path d="M 2.24645 4.49291C 3.48714 4.49291 4.4929 3.48713 4.4929 2.24645C 4.4929 1.00577 3.48714 -1.21339e-05 2.24645 -1.21339e-05C 1.00577 -1.21339e-05 7.28032e-06 1.00577 7.28032e-06 2.24645C 7.28032e-06 3.48713 1.00577 4.49291 2.24645 4.49291Z" transform="matrix(0.866025 -0.5 0.5 0.866025 112.649 416.868)" fill="url(#paint14_linear)"/>
</g>
<g id="Vector_70">
<path d="M 2.24646 4.4929C 3.48714 4.4929 4.4929 3.48715 4.4929 2.24647C 4.4929 1.00579 3.48714 4.85354e-06 2.24646 4.85354e-06C 1.00577 4.85354e-06 -7.28032e-06 1.00579 -7.28032e-06 2.24647C -7.28032e-06 3.48715 1.00577 4.4929 2.24646 4.4929Z" transform="matrix(0.866025 -0.5 0.5 0.866025 82.6898 423.784)" fill="url(#paint15_linear)"/>
</g>
<g id="Vector_71">
<path d="M 2.24645 4.49291C 3.48713 4.49291 4.49291 3.48713 4.49291 2.24645C 4.49291 1.00577 3.48713 -1.21339e-05 2.24645 -1.21339e-05C 1.00576 -1.21339e-05 0 1.00577 0 2.24645C 0 3.48713 1.00576 4.49291 2.24645 4.49291Z" transform="matrix(0.866025 -0.5 0.5 0.866025 52.7352 416.87)" fill="url(#paint16_linear)"/>
</g>
<g id="Vector_72">
<path d="M 1.72957 3.45914C 2.68479 3.45914 3.45914 2.68478 3.45914 1.72957C 3.45914 0.774354 2.68479 -6.67362e-06 1.72957 -6.67362e-06C 0.774356 -6.67362e-06 3.64016e-06 0.774354 3.64016e-06 1.72957C 3.64016e-06 2.68478 0.774356 3.45914 1.72957 3.45914Z" transform="translate(84.0873 298.379)" fill="#69F0AE"/>
</g>
<g id="Vector_73">
<path d="M 1.72957 3.45914C 2.68478 3.45914 3.45914 2.68478 3.45914 1.72957C 3.45914 0.774354 2.68478 -6.67362e-06 1.72957 -6.67362e-06C 0.774353 -6.67362e-06 -7.28032e-06 0.774354 -7.28032e-06 1.72957C -7.28032e-06 2.68478 0.774353 3.45914 1.72957 3.45914Z" transform="matrix(0.5 -0.866025 0.866025 0.5 114.564 309.076)" fill="#69F0AE"/>
</g>
<g id="Vector_74">
<path d="M 1.72957 3.45913C 2.68479 3.45913 3.45915 2.68479 3.45915 1.72957C 3.45915 0.774357 2.68479 1.21339e-05 1.72957 1.21339e-05C 0.774357 1.21339e-05 -3.64016e-06 0.774357 -3.64016e-06 1.72957C -3.64016e-06 2.68479 0.774357 3.45913 1.72957 3.45913Z" transform="matrix(0.866025 -0.5 0.5 0.866025 137.335 330.586)" fill="#69F0AE"/>
</g>
<g id="Vector_75">
<path d="M 1.72957 3.45915C 2.68478 3.45915 3.45914 2.68477 3.45914 1.72956C 3.45914 0.774341 2.68478 -3.64016e-06 1.72957 -3.64016e-06C 0.774351 -3.64016e-06 6.06693e-06 0.774341 6.06693e-06 1.72956C 6.06693e-06 2.68477 0.774351 3.45915 1.72957 3.45915Z" transform="matrix(0.5 -0.866025 0.866025 0.5 136.975 395.853)" fill="#69F0AE"/>
</g>
<g id="Vector_76">
<path d="M 1.72957 3.45913C 2.68479 3.45913 3.45915 2.68479 3.45915 1.72957C 3.45915 0.774357 2.68479 1.21339e-05 1.72957 1.21339e-05C 0.774357 1.21339e-05 -3.64016e-06 0.774357 -3.64016e-06 1.72957C -3.64016e-06 2.68479 0.774357 3.45913 1.72957 3.45913Z" transform="matrix(0.866025 -0.5 0.5 0.866025 113.355 416.939)" fill="#69F0AE"/>
</g>
<g id="Vector_77">
<path d="M 1.72957 3.45914C 2.68478 3.45914 3.45914 2.68478 3.45914 1.72957C 3.45914 0.774354 2.68478 -6.67362e-06 1.72957 -6.67362e-06C 0.774352 -6.67362e-06 6.67362e-06 0.774354 6.67362e-06 1.72957C 6.67362e-06 2.68478 0.774352 3.45914 1.72957 3.45914Z" transform="matrix(0.866025 -0.5 0.5 0.866025 52.3435 307.815)" fill="#69F0AE"/>
</g>
<g id="Vector_78">
<path d="M 1.72957 3.45913C 2.68479 3.45913 3.45914 2.68479 3.45914 1.72957C 3.45914 0.774357 2.68479 1.21339e-05 1.72957 1.21339e-05C 0.774356 1.21339e-05 3.03346e-06 0.774357 3.03346e-06 1.72957C 3.03346e-06 2.68479 0.774356 3.45913 1.72957 3.45913Z" transform="matrix(0.5 -0.866025 0.866025 0.5 29.5746 331.853)" fill="#69F0AE"/>
</g>
<g id="Vector_79">
<path d="M 2.24646 4.49292C 3.48714 4.49292 4.49291 3.48714 4.49291 2.24646C 4.49291 1.00577 3.48714 -6.06693e-06 2.24646 -6.06693e-06C 1.00578 -6.06693e-06 -4.24685e-06 1.00577 -4.24685e-06 2.24646C -4.24685e-06 3.48714 1.00578 4.49292 2.24646 4.49292Z" transform="matrix(0.866025 -0.5 0.5 0.866025 145.49 363.295)" fill="#69F0AE"/>
</g>
<g id="Vector_80">
<path d="M 1.72957 3.45915C 2.68479 3.45915 3.45914 2.68477 3.45914 1.72956C 3.45914 0.774341 2.68479 -3.64016e-06 1.72957 -3.64016e-06C 0.774359 -3.64016e-06 0 0.774341 0 1.72956C 0 2.68477 0.774359 3.45915 1.72957 3.45915Z" transform="matrix(0.866025 -0.5 0.5 0.866025 29.9384 394.586)" fill="#69F0AE"/>
</g>
<g id="Vector_81">
<path d="M 1.72956 3.45913C 2.68478 3.45913 3.45914 2.68479 3.45914 1.72957C 3.45914 0.774357 2.68478 1.21339e-05 1.72956 1.21339e-05C 0.774348 1.21339e-05 3.03346e-06 0.774357 3.03346e-06 1.72957C 3.03346e-06 2.68479 0.774348 3.45913 1.72956 3.45913Z" transform="matrix(0.5 -0.866025 0.866025 0.5 53.5535 418.207)" fill="#69F0AE"/>
</g>
<g id="Vector_82">
<path d="M 1.72957 3.45914C 2.68478 3.45914 3.45914 2.68479 3.45914 1.72958C 3.45914 0.77436 2.68478 0 1.72957 0C 0.774354 0 0 0.77436 0 1.72958C 0 2.68479 0.774354 3.45914 1.72957 3.45914Z" transform="translate(21.296 362.329)" fill="#69F0AE"/>
</g>
<g id="Vector_83">
<path d="M 1.72957 3.45913C 2.68479 3.45913 3.45914 2.68478 3.45914 1.72957C 3.45914 0.774351 2.68479 6.06693e-06 1.72957 6.06693e-06C 0.774356 6.06693e-06 3.64016e-06 0.774351 3.64016e-06 1.72957C 3.64016e-06 2.68478 0.774356 3.45913 1.72957 3.45913Z" transform="translate(84.0873 422.814)" fill="#69F0AE"/>
</g>
<g id="Vector_84" opacity="0.2">
<path d="M 3.45207 74.295C 3.45652 59.442 8.36613 45.0063 17.4182 33.2304C 26.4703 21.4546 39.158 12.9979 53.5103 9.17405C 67.8627 5.35023 83.0761 6.3734 96.7871 12.0846C 110.498 17.7958 121.939 27.8753 129.333 40.7573C 125.705 32.3295 120.394 24.7311 113.727 18.4274C 107.06 12.1238 99.1756 7.24758 90.5577 4.09745C 81.9399 0.947328 72.7697 -0.410389 63.6088 0.107461C 54.4479 0.62531 45.4891 3.00782 37.2812 7.10908C 29.0733 11.2103 21.789 16.944 15.8744 23.9589C 9.95989 30.9738 5.53964 39.1222 2.8844 47.9052C 0.229158 56.6881 -0.605186 65.9206 0.432482 75.0373C 1.47015 84.154 4.35798 92.9628 8.9191 100.924C 5.30093 92.5133 3.4405 83.4513 3.45207 74.295L 3.45207 74.295Z" transform="translate(18.4204 294.37)" fill="#FFC107"/>
</g>
<g id="Vector_85">
<path d="M 2.88262 5.76523C 4.47464 5.76523 5.76524 4.47464 5.76524 2.88262C 5.76524 1.29059 4.47464 6.06693e-06 2.88262 6.06693e-06C 1.29059 6.06693e-06 0 1.29059 0 2.88262C 0 4.47464 1.29059 5.76523 2.88262 5.76523Z" transform="translate(82.9343 359.446)" fill="#69F0AE"/>
</g>
</g>
</g>
</g>
<defs>

<linearGradient id="paint0_linear" x2="1" gradientUnits="userSpaceOnUse" gradientTransform="matrix(0 -262.915 262.915 0 67.3439 262.915)">
<stop stop-color="#808080" stop-opacity="0.25"/>
<stop offset="0.54" stop-color="#808080" stop-opacity="0.12"/>
<stop offset="1" stop-color="#808080" stop-opacity="0.1"/>
</linearGradient>
<linearGradient id="paint1_linear" x2="1" gradientUnits="userSpaceOnUse" gradientTransform="matrix(0 -76761.6 149226 0 90792.5 95317.2)">
<stop stop-color="#808080" stop-opacity="0.25"/>
<stop offset="0.54" stop-color="#808080" stop-opacity="0.12"/>
<stop offset="1" stop-color="#808080" stop-opacity="0.1"/>
</linearGradient>
<linearGradient id="paint2_linear" x2="1" gradientUnits="userSpaceOnUse" gradientTransform="matrix(0 -58506 58506 0 0 112553)">
<stop stop-color="#808080" stop-opacity="0.25"/>
<stop offset="0.54" stop-color="#808080" stop-opacity="0.12"/>
<stop offset="1" stop-color="#808080" stop-opacity="0.1"/>
</linearGradient>
<linearGradient id="paint3_linear" x2="1" gradientUnits="userSpaceOnUse" gradientTransform="matrix(0 -130.836 130.836 0 1317.51 4003.36)">
<stop stop-color="#808080" stop-opacity="0.25"/>
<stop offset="0.54" stop-color="#808080" stop-opacity="0.12"/>
<stop offset="1" stop-color="#808080" stop-opacity="0.1"/>
</linearGradient>
<linearGradient id="paint4_linear" x2="1" gradientUnits="userSpaceOnUse" gradientTransform="matrix(0 -5690.19 2658.97 0 3506.6 26031.3)">
<stop stop-color="#808080" stop-opacity="0.25"/>
<stop offset="0.54" stop-color="#808080" stop-opacity="0.12"/>
<stop offset="1" stop-color="#808080" stop-opacity="0.1"/>
</linearGradient>
<linearGradient id="paint5_linear" x2="1" gradientUnits="userSpaceOnUse" gradientTransform="matrix(0 -1558.6 946.293 0 2697.1 15154.6)">
<stop stop-color="#808080" stop-opacity="0.25"/>
<stop offset="0.54" stop-color="#808080" stop-opacity="0.12"/>
<stop offset="1" stop-color="#808080" stop-opacity="0.1"/>
</linearGradient>
<linearGradient id="paint6_linear" x2="1" gradientUnits="userSpaceOnUse" gradientTransform="matrix(35.1355 20.2855 -20.2855 35.1355 -3995.74 159.596)">
<stop stop-color="#808080" stop-opacity="0.25"/>
<stop offset="0.54" stop-color="#808080" stop-opacity="0.12"/>
<stop offset="1" stop-color="#808080" stop-opacity="0.1"/>
</linearGradient>
<linearGradient id="paint7_linear" x2="1" gradientUnits="userSpaceOnUse" gradientTransform="matrix(20.2855 -35.1355 35.1355 20.2855 -584.414 3184.45)">
<stop stop-color="#808080" stop-opacity="0.25"/>
<stop offset="0.54" stop-color="#808080" stop-opacity="0.12"/>
<stop offset="1" stop-color="#808080" stop-opacity="0.1"/>
</linearGradient>
<linearGradient id="paint8_linear" x2="1" gradientUnits="userSpaceOnUse" gradientTransform="matrix(20.3079 -35.1744 35.1744 20.3079 -389.417 3592.98)">
<stop stop-color="#808080" stop-opacity="0.25"/>
<stop offset="0.54" stop-color="#808080" stop-opacity="0.12"/>
<stop offset="1" stop-color="#808080" stop-opacity="0.1"/>
</linearGradient>
<linearGradient id="paint9_linear" x2="1" gradientUnits="userSpaceOnUse" gradientTransform="matrix(35.1744 20.3079 -20.3079 35.1744 -4049.59 773.653)">
<stop stop-color="#808080" stop-opacity="0.25"/>
<stop offset="0.54" stop-color="#808080" stop-opacity="0.12"/>
<stop offset="1" stop-color="#808080" stop-opacity="0.1"/>
</linearGradient>
<linearGradient id="paint10_linear" x2="1" gradientUnits="userSpaceOnUse" gradientTransform="matrix(35.1744 20.3079 -20.3079 35.1744 -3809.16 873.545)">
<stop stop-color="#808080" stop-opacity="0.25"/>
<stop offset="0.54" stop-color="#808080" stop-opacity="0.12"/>
<stop offset="1" stop-color="#808080" stop-opacity="0.1"/>
</linearGradient>
<linearGradient id="paint11_linear" x2="1" gradientUnits="userSpaceOnUse" gradientTransform="matrix(35.1355 20.2855 -20.2855 35.1355 -3647.49 1077.68)">
<stop stop-color="#808080" stop-opacity="0.25"/>
<stop offset="0.54" stop-color="#808080" stop-opacity="0.12"/>
<stop offset="1" stop-color="#808080" stop-opacity="0.1"/>
</linearGradient>
<linearGradient id="paint12_linear" x2="1" gradientUnits="userSpaceOnUse" gradientTransform="matrix(35.1744 20.3079 -20.3079 35.1744 -3611.16 1339.18)">
<stop stop-color="#808080" stop-opacity="0.25"/>
<stop offset="0.54" stop-color="#808080" stop-opacity="0.12"/>
<stop offset="1" stop-color="#808080" stop-opacity="0.1"/>
</linearGradient>
<linearGradient id="paint13_linear" x2="1" gradientUnits="userSpaceOnUse" gradientTransform="matrix(35.1744 20.3079 -20.3079 35.1744 -3927.33 1749.63)">
<stop stop-color="#808080" stop-opacity="0.25"/>
<stop offset="0.54" stop-color="#808080" stop-opacity="0.12"/>
<stop offset="1" stop-color="#808080" stop-opacity="0.1"/>
</linearGradient>
<linearGradient id="paint14_linear" x2="1" gradientUnits="userSpaceOnUse" gradientTransform="matrix(35.1355 20.2855 -20.2855 35.1355 -4189.76 1779.47)">
<stop stop-color="#808080" stop-opacity="0.25"/>
<stop offset="0.54" stop-color="#808080" stop-opacity="0.12"/>
<stop offset="1" stop-color="#808080" stop-opacity="0.1"/>
</linearGradient>
<linearGradient id="paint15_linear" x2="1" gradientUnits="userSpaceOnUse" gradientTransform="matrix(35.1744 20.3079 -20.3079 35.1744 -4417.15 1677.74)">
<stop stop-color="#808080" stop-opacity="0.25"/>
<stop offset="0.54" stop-color="#808080" stop-opacity="0.12"/>
<stop offset="1" stop-color="#808080" stop-opacity="0.1"/>
</linearGradient>
<linearGradient id="paint16_linear" x2="1" gradientUnits="userSpaceOnUse" gradientTransform="matrix(35.1355 20.2855 -20.2855 35.1355 -4576.97 1486.73)">
<stop stop-color="#808080" stop-opacity="0.25"/>
<stop offset="0.54" stop-color="#808080" stop-opacity="0.12"/>
<stop offset="1" stop-color="#808080" stop-opacity="0.1"/>
</linearGradient>

</defs>
</svg>

