<svg width="570" height="502" viewBox="0 0 570 502" version="1.1" xmlns="http://www.w3.org/2000/svg" xmlns:xlink="http://www.w3.org/1999/xlink">
<g id="Canvas" fill="none">
<g id="desk-circle">
<g id="Ellipse">
<circle cx="251" cy="251" r="251" transform="translate(0.0917969 0)" fill="#F55F44"/>
</g>
<g id="learning">
<g id="Group" opacity="0.7">
<g id="Vector" opacity="0.7">
<path d="M 341.567 0L 10.6583 0C 7.82229 0.0103815 5.10645 1.14651 3.10783 3.15861C 1.1092 5.17072 -0.0086311 7.89412 5.01894e-05 10.7301L 5.01894e-05 238.481C -0.0086311 241.317 1.1092 244.04 3.10783 246.052C 5.10645 248.064 7.82229 249.201 10.6583 249.211L 124.468 249.211L 124.468 288.524L 119.28 288.524C 118.567 288.527 117.863 288.67 117.206 288.945C 116.548 289.22 115.952 289.621 115.45 290.127C 114.948 290.632 114.551 291.232 114.281 291.891C 114.011 292.55 113.873 293.256 113.875 293.968L 113.875 301.855L 124.468 301.855L 124.468 306.521L 227.757 306.521L 227.757 301.855L 238.35 301.855L 238.35 293.968C 238.353 293.256 238.215 292.55 237.945 291.891C 237.675 291.232 237.277 290.632 236.775 290.127C 236.274 289.621 235.677 289.22 235.02 288.945C 234.363 288.67 233.658 288.527 232.946 288.524L 228.064 288.524L 228.064 288.185L 227.731 288.185L 227.731 249.211L 341.567 249.211C 344.403 249.201 347.119 248.064 349.118 246.052C 351.116 244.04 352.234 241.317 352.226 238.481L 352.226 10.7301C 352.234 7.89412 351.116 5.17072 349.118 3.15861C 347.119 1.14651 344.403 0.0103815 341.567 0Z" transform="translate(178.427 89.9173)" fill="url(#paint0_linear)"/>
</g>
</g>
<g id="Vector_2">
<path d="M 101.943 0L 0 0L 0 60.1201L 101.943 60.1201L 101.943 0Z" transform="translate(303.895 332.358)" fill="#BDBDBD"/>
</g>
<g id="Group_2" opacity="0.1">
<g id="Vector_3" opacity="0.1">
<path d="M 2.33293 8.49523L 100.466 8.49523C 101.649 3.35235 102.596 0 102.596 0L 0 0C 0 0 1.05211 3.33928 2.33293 8.49523Z" transform="translate(303.569 329.744)" fill="black"/>
</g>
</g>
<g id="Vector_4">
<path d="M 10.521 0L 337.13 0C 339.92 0 342.597 1.10846 344.57 3.08154C 346.543 5.05461 347.651 7.73067 347.651 10.521L 347.651 211.727L 7.97705e-07 211.727L 7.97705e-07 10.521C 7.97705e-07 7.73067 1.10846 5.05461 3.08153 3.08154C 5.05461 1.10846 7.73068 0 10.521 0L 10.521 0Z" transform="translate(181.041 91.8777)" fill="#535461"/>
</g>
<g id="Vector_5">
<path d="M 337.13 32.674L 10.521 32.674C 7.73068 32.674 5.05461 31.5655 3.08153 29.5924C 1.10846 27.6194 0 24.9433 0 22.153L 0 0L 347.651 0L 347.651 22.153C 347.651 24.9433 346.543 27.6194 344.57 29.5924C 342.597 31.5655 339.92 32.674 337.13 32.674L 337.13 32.674Z" transform="translate(181.041 303.605)" fill="#BDBDBD"/>
</g>
<g id="Vector_6">
<path d="M 5.88132 11.7626C 9.12948 11.7626 11.7626 9.12948 11.7626 5.88132C 11.7626 2.63315 9.12948 0 5.88132 0C 2.63316 0 0 2.63315 0 5.88132C 0 9.12948 2.63316 11.7626 5.88132 11.7626Z" transform="translate(348.985 314.061)" fill="#535461"/>
</g>
<g id="Vector_7">
<path d="M 5.33894 0L 117.515 0C 118.931 0 120.289 0.562497 121.29 1.56374C 122.292 2.56498 122.854 3.92297 122.854 5.33894L 122.854 13.0696L 7.97705e-07 13.0696L 7.97705e-07 5.33894C 7.97705e-07 4.63782 0.138105 3.94356 0.406411 3.29582C 0.674718 2.64807 1.06798 2.05951 1.56374 1.56374C 2.05951 1.06797 2.64807 0.674717 3.29582 0.406411C 3.94357 0.138104 4.63782 0 5.33894 0L 5.33894 0Z" transform="translate(293.44 374.834)" fill="#BDBDBD"/>
</g>
<g id="Group_3" opacity="0.5">
<g id="Vector_8" opacity="0.5">
<path d="M 212.708 0L 2.94066 0C 1.31658 0 0 1.31658 0 2.94066L 0 119.757C 0 121.381 1.31658 122.697 2.94066 122.697L 212.708 122.697C 214.332 122.697 215.648 121.381 215.648 119.757L 215.648 2.94066C 215.648 1.31658 214.332 0 212.708 0Z" transform="translate(247.043 136.393)" fill="url(#paint1_linear)"/>
</g>
</g>
<g id="Vector_9">
<path d="M 207.179 0L 2.94067 0C 1.31659 0 7.97705e-06 1.31658 7.97705e-06 2.94066L 7.97705e-06 117.273C 7.97705e-06 118.898 1.31659 120.214 2.94067 120.214L 207.179 120.214C 208.803 120.214 210.12 118.898 210.12 117.273L 210.12 2.94066C 210.12 1.31658 208.803 0 207.179 0Z" transform="translate(249.807 137.295)" fill="white"/>
</g>
<g id="Group_4" opacity="0.5">
<g id="Vector_10" opacity="0.5">
<path d="M 20.2187 2.39311e-06L 2.94065 2.39311e-06C 1.31657 2.39311e-06 -7.17934e-06 1.31658 -7.17934e-06 2.94066L -7.17934e-06 17.9053C -7.17934e-06 19.5294 1.31657 20.846 2.94065 20.846L 20.2187 20.846C 21.8427 20.846 23.1593 19.5294 23.1593 17.9053L 23.1593 2.94066C 23.1593 1.31658 21.8427 2.39311e-06 20.2187 2.39311e-06Z" transform="translate(308.339 154.553)" fill="#FFC107"/>
</g>
</g>
<g id="Vector_11">
<path d="M 61.3748 2.39311e-06L 1.15665 2.39311e-06C 0.517844 2.39311e-06 -2.39311e-06 0.517854 -2.39311e-06 1.15666C -2.39311e-06 1.79546 0.517844 2.31332 1.15665 2.31332L 61.3748 2.31332C 62.0136 2.31332 62.5315 1.79546 62.5315 1.15666C 62.5315 0.517854 62.0136 2.39311e-06 61.3748 2.39311e-06Z" transform="translate(338.445 154.553)" fill="#E0E0E0"/>
</g>
<g id="Vector_12">
<path d="M 50.8211 1.99426e-06L 1.15665 1.99426e-06C 0.517844 1.99426e-06 -2.39311e-06 0.517854 -2.39311e-06 1.15666C -2.39311e-06 1.79546 0.517844 2.31332 1.15665 2.31332L 50.8211 2.31332C 51.4599 2.31332 51.9778 1.79546 51.9778 1.15666C 51.9778 0.517854 51.4599 1.99426e-06 50.8211 1.99426e-06Z" transform="translate(338.445 161.506)" fill="#E0E0E0"/>
</g>
<g id="Group_5" opacity="0.5">
<g id="Vector_13" opacity="0.5">
<path d="M 20.2187 0L 2.94065 0C 1.31657 0 -7.17934e-06 1.31658 -7.17934e-06 2.94066L -7.17934e-06 17.9053C -7.17934e-06 19.5294 1.31657 20.846 2.94065 20.846L 20.2187 20.846C 21.8427 20.846 23.1593 19.5294 23.1593 17.9053L 23.1593 2.94066C 23.1593 1.31658 21.8427 0 20.2187 0Z" transform="translate(308.339 186.979)" fill="#FFC107"/>
</g>
</g>
<g id="Vector_14">
<path d="M 61.3748 0L 1.15665 0C 0.517844 0 -2.39311e-06 0.517856 -2.39311e-06 1.15666C -2.39311e-06 1.79547 0.517844 2.31332 1.15665 2.31332L 61.3748 2.31332C 62.0136 2.31332 62.5315 1.79547 62.5315 1.15666C 62.5315 0.517856 62.0136 0 61.3748 0Z" transform="translate(338.445 186.979)" fill="#E0E0E0"/>
</g>
<g id="Vector_15">
<path d="M 61.3748 2.39311e-06L 1.15665 2.39311e-06C 0.517844 2.39311e-06 -2.39311e-06 0.517849 -2.39311e-06 1.15665C -2.39311e-06 1.79546 0.517844 2.31332 1.15665 2.31332L 61.3748 2.31332C 62.0136 2.31332 62.5315 1.79546 62.5315 1.15665C 62.5315 0.517849 62.0136 2.39311e-06 61.3748 2.39311e-06Z" transform="translate(338.445 193.925)" fill="#E0E0E0"/>
</g>
<g id="Group_6" opacity="0.5">
<g id="Vector_16" opacity="0.5">
<path d="M 20.2187 -3.98852e-06L 2.94065 -3.98852e-06C 1.31657 -3.98852e-06 -7.17934e-06 1.31657 -7.17934e-06 2.94065L -7.17934e-06 17.9053C -7.17934e-06 19.5294 1.31657 20.846 2.94065 20.846L 20.2187 20.846C 21.8427 20.846 23.1593 19.5294 23.1593 17.9053L 23.1593 2.94065C 23.1593 1.31657 21.8427 -3.98852e-06 20.2187 -3.98852e-06Z" transform="translate(308.339 219.404)" fill="#FFC107"/>
</g>
</g>
<g id="Vector_17">
<path d="M 61.3748 -3.98852e-06L 1.15665 -3.98852e-06C 0.517844 -3.98852e-06 -2.39311e-06 0.517853 -2.39311e-06 1.15666C -2.39311e-06 1.79546 0.517844 2.31332 1.15665 2.31332L 61.3748 2.31332C 62.0136 2.31332 62.5315 1.79546 62.5315 1.15666C 62.5315 0.517853 62.0136 -3.98852e-06 61.3748 -3.98852e-06Z" transform="translate(338.445 219.404)" fill="#E0E0E0"/>
</g>
<g id="Vector_18">
<path d="M 61.9107 0L 1.03903 0C 0.465186 0 -2.39311e-06 0.465188 -2.39311e-06 1.03903L -2.39311e-06 1.27428C -2.39311e-06 1.84812 0.465186 2.31332 1.03903 2.31332L 61.9107 2.31332C 62.4845 2.31332 62.9497 1.84812 62.9497 1.27428L 62.9497 1.03903C 62.9497 0.465188 62.4845 0 61.9107 0Z" transform="translate(338.445 226.351)" fill="#E0E0E0"/>
</g>
<g id="Vector_19">
<path d="M 1.2207e-06 14.3766L 1.2207e-06 0" stroke-width="2" stroke-miterlimit="10" transform="translate(354.867 102.987)" stroke="#FFC107"/>
</g>
<g id="Vector_20">
<path d="M 1.2207e-06 18.866L 1.2207e-06 6.97992e-07" stroke-width="2" stroke-miterlimit="10" transform="translate(354.867 122.676)" stroke="#FFC107"/>
</g>
<g id="Vector_21">
<path d="M 2.61392 5.22784C 4.05755 5.22784 5.22784 4.05755 5.22784 2.61392C 5.22784 1.17029 4.05755 0 2.61392 0C 1.17029 0 0 1.17029 0 2.61392C 0 4.05755 1.17029 5.22784 2.61392 5.22784Z" transform="translate(352.253 138.928)" fill="#FFC107"/>
</g>
<g id="Vector_22">
<path d="M 5.22784 2.61392C 5.22784 4.05755 4.05755 5.22784 2.61392 5.22784C 1.17029 5.22784 7.97705e-07 4.05755 7.97705e-07 2.61392C 7.97705e-07 1.17029 1.17029 0 2.61392 0C 4.05755 0 5.22784 1.17029 5.22784 2.61392Z" stroke-miterlimit="10" transform="translate(352.253 117.363)" stroke="white"/>
</g>
<g id="Vector_23">
<path d="M 1.2207e-06 14.3766L 1.2207e-06 0" stroke-width="2" stroke-miterlimit="10" transform="translate(354.867 102.987)" stroke="#FFC107"/>
</g>
<g id="Vector_24">
<path d="M 1.2207e-06 18.866L 1.2207e-06 6.97992e-07" stroke-width="2" stroke-miterlimit="10" transform="translate(354.867 122.676)" stroke="#FFC107"/>
</g>
<g id="Vector_25">
<path d="M 2.61392 5.22784C 4.05755 5.22784 5.22784 4.05755 5.22784 2.61392C 5.22784 1.17029 4.05755 0 2.61392 0C 1.17029 0 0 1.17029 0 2.61392C 0 4.05755 1.17029 5.22784 2.61392 5.22784Z" transform="translate(352.253 138.928)" fill="#FFC107"/>
</g>
<g id="Vector_26">
<path d="M 5.22784 2.61392C 5.22784 4.05755 4.05755 5.22784 2.61392 5.22784C 1.17029 5.22784 7.97705e-07 4.05755 7.97705e-07 2.61392C 7.97705e-07 1.17029 1.17029 0 2.61392 0C 4.05755 0 5.22784 1.17029 5.22784 2.61392Z" stroke-miterlimit="10" transform="translate(352.253 117.363)" stroke="white"/>
</g>
<g id="Vector_27">
<path d="M 1.2207e-06 0L 1.2207e-06 20.2579" stroke-width="2" stroke-miterlimit="10" transform="translate(354.867 272.238)" stroke="#FFC107"/>
</g>
<g id="Vector_28">
<path d="M 1.2207e-06 0L 1.2207e-06 18.866" stroke-width="2" stroke-miterlimit="10" transform="translate(354.867 253.941)" stroke="#FFC107"/>
</g>
<g id="Vector_29">
<path d="M 2.61392 5.22784C 4.05755 5.22784 5.22784 4.05755 5.22784 2.61392C 5.22784 1.17029 4.05755 0 2.61392 0C 1.17029 0 0 1.17029 0 2.61392C 0 4.05755 1.17029 5.22784 2.61392 5.22784Z" transform="translate(352.253 251.327)" fill="#FFC107"/>
</g>
<g id="Vector_30">
<path d="M 20.5846 0L 7.97705e-07 0" stroke-width="2" stroke-miterlimit="10" transform="translate(216.656 200.029)" stroke="#FFC107"/>
</g>
<g id="Vector_31">
<path d="M 18.866 0L 3.98852e-06 0" stroke-width="2" stroke-miterlimit="10" transform="translate(236.345 200.029)" stroke="#FFC107"/>
</g>
<g id="Vector_32">
<path d="M 2.61392 5.22784C 4.05755 5.22784 5.22784 4.05755 5.22784 2.61392C 5.22784 1.17029 4.05755 0 2.61392 0C 1.17029 0 0 1.17029 0 2.61392C 0 4.05755 1.17029 5.22784 2.61392 5.22784Z" transform="translate(252.597 197.415)" fill="#FFC107"/>
</g>
<g id="Group_7" opacity="0.1">
<g id="Vector_33" opacity="0.1">
<path d="M 101.943 0L 0 0L 0 1.96044L 101.943 1.96044L 101.943 0Z" transform="translate(304.222 374.508)" fill="black"/>
</g>
</g>
<g id="Group_8" opacity="0.7">
<g id="Vector_34" opacity="0.7">
<path d="M 68.7982 81.6091L 37.952 81.6091L 38.378 78.141C 47.095 70.3144 52.7317 49.4634 52.7317 49.4634C 52.6066 49.4808 52.4828 49.5065 52.361 49.5401C 47.2484 50.5712 43.6099 52.6716 41.0664 55.1981L 42.1486 45.9698C 58.2534 42.5017 64.6399 21.1991 64.6399 21.1991C 54.3635 23.4785 47.9557 27.0062 43.9763 30.355L 45.5613 16.798C 56.4512 20.5344 67.716 0.684646 67.716 0.684646L 67.2899 0.595178L 67.503 0.458838L 67.1792 0.573868C 55.1432 -2.02079 48.7098 4.85997 46.6221 7.71878L 46.7798 6.3895C 46.4616 7.2416 46.152 8.07667 45.851 8.89469L 45.851 8.92877C 44.9989 11.238 44.2192 13.5188 43.5119 15.7712C 42.8956 17.6941 42.319 19.5971 41.7822 21.4803L 41.7822 21.4547C 41.7822 21.4547 41.2837 9.32926 28.4978 6.13813C 28.4978 6.13813 29.8399 32.5832 39.9714 28.2545C 39.0341 32.089 38.2672 35.7786 37.6026 39.3617C 37.1794 41.6936 36.8101 43.9659 36.4949 46.1785L 36.4352 46.2467L 36.4949 46.1956L 36.4693 46.3703C 36.1853 48.3784 35.9438 50.3354 35.745 52.2413C 35.941 48.5687 35.2721 37.96 22.7717 27.9904C 22.7717 27.9904 6.15564 57.192 34.4881 62.9267C 34.5521 62.9821 34.616 63.0375 34.6756 63.0886L 34.633 62.9565L 34.8886 63.0119L 35.0037 61.5122C 34.6621 67.7715 34.6948 74.0457 35.1017 80.3011L 35.1017 80.3011C 35.1315 80.7272 35.1613 81.1532 35.1911 81.558L 3.9913 81.558C -7.91261 106.18 10.6036 119.673 10.6036 119.673L 61.73 119.673C 81.584 94.6463 68.7982 81.6091 68.7982 81.6091Z" transform="translate(154.098 268.231)" fill="url(#paint2_linear)"/>
</g>
</g>
<g id="Vector_35" opacity="0.6">
<path d="M 1.82643 80.95C 1.82643 80.95 -6.26857 45.5876 11.6256 0" stroke-width="3" stroke-miterlimit="10" transform="translate(188.486 278.238)" stroke="#535461"/>
</g>
<g id="Vector_36">
<path d="M 3.85688 0L 66.4866 0C 66.4866 0 78.8421 15.7639 59.6698 39.1968L 10.2477 39.1968C 10.2477 39.1968 -7.64654 23.0068 3.85688 0Z" transform="translate(154.927 348.537)" fill="#FFC107"/>
</g>
<g id="Vector_37">
<path d="M 2.29642 8.32033C 2.29642 8.32033 8.52105 -2.75703 23.4329 0.651387C 23.4329 0.651387 11.1072 21.6387 0 14.7665L 2.29642 8.32033Z" transform="translate(196.916 272.261)" fill="#4DB6AC"/>
</g>
<g id="Vector_38">
<path d="M 12.837 14.3111C 12.837 14.3111 12.3555 2.98237 0 0C 0 0 1.27816 24.7111 11.0774 20.6636L 12.837 14.3111Z" transform="translate(182.43 278.025)" fill="#4DB6AC"/>
</g>
<g id="Vector_39">
<path d="M 1.09921 16.9825C 1.09921 16.9825 3.3786 5.11263 27.2375 0C 27.2375 0 19.6282 24.5492 3.1205e-06 23.565L 1.09921 16.9825Z" transform="translate(190.129 292.085)" fill="#4DB6AC"/>
</g>
<g id="Vector_40">
<path d="M 17.0742 23.9143C 17.0742 23.9143 19.5836 11.5034 4.6718 0C 4.6718 0 -11.5182 27.5528 16.3797 32.7336L 17.0742 23.9143Z" transform="translate(172.219 298.476)" fill="#4DB6AC"/>
</g>
<g id="Vector_41">
<path d="M 0.0419838 20.949C 0.0419838 20.949 -1.68779 3.40842 17.0585 0C 17.0585 0 10.2119 24.4938 0.0164217 28.8608L 0.0419838 20.949Z" transform="translate(188.804 318.5)" fill="#4DB6AC"/>
</g>
<g id="Vector_42" opacity="0.3">
<path d="M 0 14.4858C 0 14.4858 16.19 2.13026 23.0068 0" stroke-miterlimit="10" transform="translate(197.129 272.699)" stroke="#535461"/>
</g>
<g id="Vector_43" opacity="0.3">
<path d="M 0 23.4329C 0 23.4329 19.5984 2.55632 27.2674 0" stroke-miterlimit="10" transform="translate(190.099 292.085)" stroke="#535461"/>
</g>
<g id="Vector_44" opacity="0.3">
<path d="M 0 0C 0 0 11.9295 16.19 11.0774 20.4505" stroke-miterlimit="10" transform="translate(182.43 278.025)" stroke="#535461"/>
</g>
<g id="Vector_45" opacity="0.3">
<path d="M 0 0C 0 0 6.39079 28.9716 11.5034 32.8061" stroke-miterlimit="10" transform="translate(176.891 298.476)" stroke="#535461"/>
</g>
<g id="Vector_46" opacity="0.3">
<path d="M 0 28.9716C 0 28.9716 10.2253 0.852105 17.0421 0" stroke-miterlimit="10" transform="translate(188.821 318.5)" stroke="#535461"/>
</g>
<g id="Group_9" opacity="0.1">
<g id="Vector_47" opacity="0.1">
<path d="M 66.2818 0L 0.44785 0C 0.300059 0.285478 0.156747 0.570957 0 0.852174L 64.0425 0.852174C 64.0425 0.852174 76.7122 16.2382 57.5935 39.2L 59.1162 39.2C 79.2694 15.7652 66.2818 0 66.2818 0Z" transform="translate(155.323 348.704)" fill="black"/>
</g>
</g>
<g id="Vector_48">
<path d="M 415.3 3.98852e-06L 0 3.98852e-06L 0 21.5191L 415.3 21.5191L 415.3 3.98852e-06Z" transform="translate(154.098 387.544)" fill="#E0E0E0"/>
</g>
<g id="Vector_49">
<path d="M 365.3 0L 0 0L 0 8.80237L 365.3 8.80237L 365.3 0Z" transform="translate(178.427 408.514)" fill="#E0E0E0"/>
</g>
<g id="Vector_50" opacity="0.1">
<path d="M 365.3 0L 0 0L 0 2.93412L 365.3 2.93412L 365.3 0Z" transform="translate(178.427 408.514)" fill="black"/>
</g>
<g id="Vector_51">
<path d="M -1.91449e-05 0L 3.92086 0" stroke-width="2" stroke-miterlimit="10" transform="translate(488.503 200.029)" stroke="#FFC107"/>
</g>
<g id="Vector_52">
<path d="M -1.91449e-05 0L 29.3281 0" stroke-width="2" stroke-miterlimit="10" transform="translate(453.869 200.029)" stroke="#FFC107"/>
</g>
<g id="Vector_53">
<path d="M 2.6139 5.22784C 4.05753 5.22784 5.22782 4.05755 5.22782 2.61392C 5.22782 1.17029 4.05753 0 2.6139 0C 1.17027 0 -1.91449e-05 1.17029 -1.91449e-05 2.61392C -1.91449e-05 4.05755 1.17027 5.22784 2.6139 5.22784Z" transform="translate(451.255 197.415)" fill="#FFC107"/>
</g>
<g id="Vector_54">
<path d="M 5.22782 2.61392C 5.22782 4.05755 4.05753 5.22784 2.6139 5.22784C 1.17027 5.22784 -1.91449e-05 4.05755 -1.91449e-05 2.61392C -1.91449e-05 1.17029 1.17027 0 2.6139 0C 4.05753 0 5.22782 1.17029 5.22782 2.61392Z" stroke-miterlimit="10" transform="translate(483.276 197.415)" stroke="white"/>
</g>
<g id="Group_10" opacity="0.7">
<g id="Vector_55" opacity="0.7">
<path d="M 42.426 73.2661L 42.4711 73.1984C 42.5644 73.054 42.6562 72.9035 42.7464 72.7471L 42.7961 72.6613C 42.8833 72.5139 42.9661 72.3634 43.0443 72.21L 43.0849 72.1332C 43.1752 71.9572 43.261 71.7812 43.3377 71.5961C 43.5003 71.2268 43.6419 70.8486 43.762 70.4633L 43.8071 70.3144C 43.8478 70.1744 43.8883 70.0345 43.9244 69.8946L 43.9696 69.696C 43.9997 69.5696 44.0268 69.4417 44.0508 69.3124C 44.0508 69.2401 44.0779 69.1679 44.0914 69.0957C 44.105 69.0235 44.1321 68.843 44.1501 68.7121C 44.1682 68.5812 44.1501 68.5631 44.1772 68.4909C 44.2043 68.4187 44.2043 68.2156 44.2133 68.0757C 44.2133 68.0125 44.2133 67.9448 44.2133 67.8816C 44.2133 67.6785 44.2133 67.4709 44.2133 67.2678L 44.2133 29.9916L 37.9622 29.9916L 37.9622 11.7213L 30.2895 11.7213L 30.2895 29.9916L 24.9998 29.9916L 24.9998 3.75063L 17.327 3.75063L 17.327 29.9916L 14.4429 29.9916L 14.4429 -5.50953e-06L 6.77011 -5.50953e-06L 6.77011 29.9916L 0 29.9916L 0 67.2723C 0 73.3564 5.05953 78.285 11.2835 78.285L 32.9479 78.285C 34.719 78.292 36.4672 77.8852 38.0533 77.0969C 39.6393 76.3085 41.0192 75.1606 42.083 73.7445L 42.083 73.7445C 42.1943 73.5851 42.3087 73.4256 42.426 73.2661Z" transform="translate(499.514 309.619)" fill="url(#paint3_linear)"/>
</g>
</g>
<g id="Vector_56">
<path d="M 7.22143 0L -1.32229e-05 0L -1.32229e-05 45.1341L 7.22143 45.1341L 7.22143 0Z" transform="translate(507.187 326.973)" fill="#535461"/>
</g>
<g id="Vector_57">
<path d="M 7.22143 0L -1.32229e-05 0L -1.32229e-05 14.8942L 7.22143 14.8942L 7.22143 0Z" transform="translate(507.187 312.079)" fill="#3AD29F"/>
</g>
<g id="Vector_58">
<path d="M 7.22143 0L -1.32229e-05 0L -1.32229e-05 45.1341L 7.22143 45.1341L 7.22143 0Z" transform="translate(517.116 330.584)" fill="#535461"/>
</g>
<g id="Vector_59">
<path d="M 7.22143 0L -1.32229e-05 0L -1.32229e-05 14.8942L 7.22143 14.8942L 7.22143 0Z" transform="translate(517.116 315.69)" fill="#4D8AF0"/>
</g>
<g id="Vector_60">
<path d="M 7.22143 0L -1.32229e-05 0L -1.32229e-05 45.1341L 7.22143 45.1341L 7.22143 0Z" transform="translate(529.302 338.257)" fill="#535461"/>
</g>
<g id="Vector_61">
<path d="M 7.22143 0L -1.32229e-05 0L -1.32229e-05 14.8942L 7.22143 14.8942L 7.22143 0Z" transform="translate(529.302 323.362)" fill="#F55F44"/>
</g>
<g id="Vector_62">
<path d="M -1.32229e-05 0L 41.5233 0L 41.5233 35.8816C 41.5233 38.6946 40.4059 41.3924 38.4168 43.3815C 36.4277 45.3706 33.7298 46.4881 30.9168 46.4881L 10.6065 46.4881C 7.79347 46.4881 5.09567 45.3706 3.10656 43.3815C 1.11746 41.3924 -1.32229e-05 38.6946 -1.32229e-05 35.8816L -1.32229e-05 0Z" transform="translate(500.868 340.965)" fill="#FFC107"/>
</g>
<g id="Group_11" opacity="0.1">
<g id="Vector_63" opacity="0.1">
<path d="M 0 0L 0 1.80536L 39.718 1.80536L 39.718 37.6869C 39.7217 40.0585 38.9267 42.3622 37.4613 44.2269C 38.7279 43.2359 39.752 41.9693 40.4559 40.5232C 41.1597 39.0772 41.5248 37.4898 41.5233 35.8816L 41.5233 0L 0 0Z" transform="translate(500.868 340.965)" fill="black"/>
</g>
</g>
</g>
</g>
</g>
<defs>

<linearGradient id="paint0_linear" x2="1" gradientUnits="userSpaceOnUse" gradientTransform="matrix(0 -306.515 306.515 0 22.8555 306.515)">
<stop stop-color="#808080" stop-opacity="0.25"/>
<stop offset="0.54" stop-color="#808080" stop-opacity="0.12"/>
<stop offset="1" stop-color="#808080" stop-opacity="0.1"/>
</linearGradient>
<linearGradient id="paint1_linear" x2="1" gradientUnits="userSpaceOnUse" gradientTransform="matrix(0 -23037.7 40490.1 0 84499.6 31763.9)">
<stop stop-color="#808080" stop-opacity="0.25"/>
<stop offset="0.54" stop-color="#808080" stop-opacity="0.12"/>
<stop offset="1" stop-color="#808080" stop-opacity="0.1"/>
</linearGradient>
<linearGradient id="paint2_linear" x2="1" gradientUnits="userSpaceOnUse" gradientTransform="translate(9616.19 51399.4) scale(12457.3 20464)">
<stop stop-color="#808080" stop-opacity="0.25"/>
<stop offset="0.54" stop-color="#808080" stop-opacity="0.12"/>
<stop offset="1" stop-color="#808080" stop-opacity="0.1"/>
</linearGradient>
<linearGradient id="paint3_linear" x2="1" gradientUnits="userSpaceOnUse" gradientTransform="translate(41251 40651.9) scale(4332.91 7671.94)">
<stop stop-color="#808080" stop-opacity="0.25"/>
<stop offset="0.54" stop-color="#808080" stop-opacity="0.12"/>
<stop offset="1" stop-color="#808080" stop-opacity="0.1"/>
</linearGradient>

</defs>
</svg>

